<?xml version="1.0" standalone="no"?>
<!DOCTYPE svg PUBLIC "-//W3C//DTD SVG 1.1//EN" "http://www.w3.org/Graphics/SVG/1.1/DTD/svg11.dtd" >
<svg xmlns="http://www.w3.org/2000/svg">
<metadata></metadata>
<defs>
<font id="bastillemedium" horiz-adv-x="731" >
<font-face units-per-em="2048" ascent="1638" descent="-410" />
<missing-glyph horiz-adv-x="872" />
<glyph horiz-adv-x="0" />
<glyph unicode="&#xd;" horiz-adv-x="681" />
<glyph unicode=" "  horiz-adv-x="872" />
<glyph unicode="&#x09;" horiz-adv-x="872" />
<glyph unicode="&#xa0;" horiz-adv-x="872" />
<glyph unicode="!" horiz-adv-x="272" d="M53 444l2 37q2 33 2 150q-2 121 -2 301q2 178 2 276l2 97q2 31 24.5 53t54.5 22t54.5 -23.5t20.5 -53.5l-2 -97q0 -96 -1 -276t1 -297q0 -123 -2 -162l-2 -37q-2 -31 -26.5 -52.5t-55.5 -19t-52.5 26.5t-19.5 55zM59 95.5q0 31.5 22.5 54t55.5 23t53 -22.5l7 -7 q23 -23 22.5 -54.5t-22 -54t-54 -22.5t-55.5 23l-6 6q-23 23 -23 54.5z" />
<glyph unicode="&#x22;" horiz-adv-x="569" d="M55 928l6 18q4 16 9 76q6 59 2 84l-6 35q-4 31 14 57.5t49 31.5t57.5 -13.5t30.5 -49.5l6 -34q8 -45 0 -125q-6 -76 -14 -101l-4 -20q-8 -29 -37 -45.5t-58.5 -8t-46 36t-8.5 58.5zM317 1149q-4 33 14.5 57.5t50.5 29.5t56 -13l19 -15q37 -29 51 -92q14 -53 8 -112 q-6 -51 -16 -91l-8 -32q-8 -31 -37 -46.5t-58.5 -7t-46 36t-8.5 58.5l10 32q6 25 10 66q4 33 -2 59q-2 8 -4 13l-8 6q-27 18 -31 51z" />
<glyph unicode="#" horiz-adv-x="1198" d="M53 399.5q-4 30.5 15.5 56t52.5 29.5l67 9q47 6 152 10l4 28q18 123 59 336q-55 4 -88 11l-84 10q-31 6 -50 31.5t-14 56.5t30.5 50.5t56.5 14.5l82 -12q35 -6 98 -12q29 135 47 209l25 104q8 31 34.5 48.5t57.5 9t48.5 -35t8.5 -57.5l-24 -106q-16 -66 -41 -184 q27 -2 57 -5q45 -4 84 -6q25 127 47 201l33 107q10 29 38 44t58.5 5.5t45 -37t5.5 -58.5l-32 -106q-18 -59 -39 -164q39 -2 59 0q80 0 111 -4l24 -4q31 -6 49.5 -31.5t13.5 -56.5t-31 -50.5t-56 -13.5l-25 4q-16 2 -82 3q-33 -2 -90 2q0 -2 -1 -4l-1 -1q-29 -174 -55 -327 h24q115 -2 140 -6l18 -4q31 -6 48.5 -33t11 -57.5t-33 -49t-57.5 -12.5l-16 4q-20 2 -113 4h-53q-27 -141 -39 -198l-16 -70q-6 -31 -34 -48.5t-57.5 -10t-47 34t-11.5 57.5l15 69q12 49 34 168q-57 0 -122 -2h-21q-8 -47 -16 -96q-23 -123 -25 -152v-32q-2 -31 -25.5 -52.5 t-55.5 -20.5t-53.5 24.5t-18.5 56.5v33q2 37 26 170q6 35 12 67q-80 -2 -108 -6l-70 -8q-31 -4 -56.5 15.5t-29.5 50zM496 504q84 2 149 2q31 158 60 338q-31 2 -68 4q-41 4 -78 6q-45 -221 -61 -342q-2 -4 -2 -8z" />
<glyph unicode="&#x26;" horiz-adv-x="1124" d="M63 430q20 74 68 164q35 68 82 115q-49 82 -78 174q-47 152 0 288q49 147 195 199q129 45 198 35q76 -8 146 -64q70 -55 96 -129q29 -78 6 -159q-20 -78 -71 -133q-39 -43 -107 -101.5t-131 -103.5q-23 -16 -47 -35q59 -72 127 -141q90 -90 213 -201q6 -4 14 -10 q39 49 68 98q45 74 55 115q8 35 10 49v12q0 31 22.5 53.5t54.5 22.5t54.5 -22.5t22.5 -53.5v-14q0 -23 -14 -84q-16 -63 -72 -156q-37 -61 -86 -123q33 -27 57 -47q68 -55 90 -82l17 -20q20 -25 17 -56.5t-26.5 -52t-55.5 -17.5t-52 27l-18 21q-12 16 -70 61q-27 23 -66 58 q-66 -53 -153 -90q-135 -57 -234 -47q-90 10 -147 40q-59 33 -109 97q-49 63 -71 141q-27 86 -5 172zM213 303q16 -51 47 -92q31 -39 59 -55q33 -16 95 -23q55 -8 155 35q53 23 95 51q-2 2 -5 4q-127 113 -221 207q-72 74 -135 150q-18 -25 -37 -58q-39 -74 -53 -131 q-12 -45 0 -88zM281 1120q-31 -88 2 -190q18 -66 51 -123q23 16 45 33q57 39 117.5 93t95.5 93q27 27 37 66q8 37 -2 67q-12 33 -49 62q-35 29 -68 32q-35 4 -129 -28q-76 -27 -100 -105z" />
<glyph unicode="'" horiz-adv-x="301" d="M57.5 931.5q-10.5 30.5 3.5 57.5l9 19q8 20 18 84q10 68 4 92l-10 39q-8 31 7 58.5t46 35.5t58.5 -7.5t35.5 -45.5l11 -41q16 -55 0 -156q-16 -96 -31 -127l-10 -18q-14 -29 -45 -39.5t-58.5 4t-38 45z" />
<glyph unicode="(" horiz-adv-x="628" d="M66 655q31 186 96 349q66 160 145 282q84 127 121 154l25 20q25 18 56.5 14t51 -28.5t15.5 -56.5t-29 -50l-25 -20q-20 -20 -86 -119q-74 -109 -131 -256q-59 -143 -88 -313q-27 -164 14 -360.5t82 -260.5q45 -70 103 -131q61 -63 80 -78l22 -18q25 -20 28 -52 t-17.5 -56.5t-52.5 -27.5t-56 17l-23 19q-25 20 -92 90q-68 72 -121 153q-57 88 -103 313.5t-15 415.5z" />
<glyph unicode=")" horiz-adv-x="638" d="M53 1395.5q-4 31.5 15.5 57.5t51 29.5t56.5 -16.5l33 -24q33 -27 108 -99q82 -80 162 -245q80 -166 96 -305q16 -135 5 -246t-74 -299q-63 -186 -125 -303q-59 -111 -84 -164q-25 -51 -31 -66l-6 -14q-12 -31 -42 -43t-58.5 0t-41 42t0.5 58l6 17q6 16 35 73 q25 53 84 166q55 106 116 283q57 174 67.5 266t-3.5 211q-14 115 -82 256q-70 141 -131 203q-70 68 -96 88l-33 25q-25 18 -29 49.5z" />
<glyph unicode="+" horiz-adv-x="1007" d="M54 602q3 31 27.5 51.5t55.5 16.5l137 -15q72 -8 148 -14q4 59 8 127q12 229 14 256v25q2 31 26 52t55.5 20t53 -24.5t19.5 -54.5v-24q-2 -27 -14 -260q-4 -68 -9 -127q129 -8 175 -6q57 4 94 4h35q31 0 53 -22.5t22 -54.5t-22.5 -54.5t-52.5 -22.5h-35q-33 0 -84 -2 q-55 -4 -195 4q-2 -37 -4 -67q-8 -113 -12 -162l-4 -49q-2 -33 -26.5 -53.5t-56.5 -17.5t-52.5 27.5t-18.5 55.5l4 49q4 47 13 162q2 29 6 65q-80 8 -156 15l-135 16q-33 2 -52.5 27.5t-16.5 56.5z" />
<glyph unicode="," horiz-adv-x="409" d="M55 -196.5q-8 30.5 8.5 58t47.5 36.5l34 8q12 2 31 22q18 16 25 74q8 63 -2 92l-21 45q-12 31 0 60.5t41 42t58.5 0.5t41.5 -41l21 -47q27 -66 14 -170q-14 -111 -67 -164q-51 -49 -105 -64l-32 -8q-31 -8 -59 8.5t-36 47z" />
<glyph unicode="-" d="M53 572.5q0 31.5 22.5 54t55.5 22.5h23q23 0 133 8q117 6 184 9q66 2 84 2q29 0 55 -11l17 -4q29 -10 44 -38.5t5 -58.5t-39 -44t-57 -4l-17 4q-4 2 -8 2q-14 0 -82 -2q-63 -2 -176 -8q-117 -8 -143 -8h-23q-33 0 -55.5 22.5t-22.5 54z" />
<glyph unicode="." horiz-adv-x="264" d="M53 85.5q0 31.5 22.5 54t54 22.5t54.5 -23l6 -6q23 -23 23 -54.5t-22.5 -54t-54.5 -22.5t-54 23l-6 6q-23 23 -23 54.5z" />
<glyph unicode="/" horiz-adv-x="743" d="M55 -84l8 43q10 47 64 186q49 133 117 349q72 223 149 405q78 176 113 272l35 101q12 31 40.5 44t58.5 3t43 -40t3 -58l-35 -101q-37 -102 -116 -282q-76 -176 -144 -389q-70 -221 -121 -357q-49 -129 -55 -166l-10 -41q-6 -31 -33 -48t-57.5 -11t-48 32.5t-11.5 57.5z " />
<glyph unicode="0" horiz-adv-x="940" d="M55 651q4 188 41 312q41 129 156 245q10 10 31.5 33t28.5 30t22.5 21.5t24 20.5t20.5 14t22 12l25 11q26 12 57 2q29 -4 88 -25q70 -27 131 -76q68 -51 111 -139q37 -80 59 -203q25 -125 9 -282q-16 -156 -54 -269q-39 -121 -120 -211q-84 -92 -181 -127 q-98 -33 -186 -16q-94 18 -178 115q-80 94 -96 229q-16 119 -11 303zM209 647q-6 -172 8 -278q12 -90 62 -150q49 -55 90 -63q49 -10 106 10q59 20 117 84q61 68 90 156q31 98 45 237q14 135 -4 238q-20 104 -49 166q-27 53 -66 83q-43 35 -90 54q-37 12 -53 16 q-27 -20 -105 -100q-88 -90 -116 -182q-31 -102 -35 -271z" />
<glyph unicode="1" horiz-adv-x="624" d="M53 1211.5q-4 31.5 15.5 57t50.5 29.5l53 7q51 8 129 22q78 12 109 19q59 12 102 -19q16 -10 26.5 -24.5t15.5 -32t7 -28.5t3 -33.5t3 -28.5q6 -86 2 -166q-2 -74 -4 -203q-4 -129 -2 -252t0 -197t-2 -154.5t2 -105.5l2 -26q2 -31 -19.5 -55.5t-52 -26.5t-55 19.5 t-26.5 52.5l-2 26q-2 31 -2 115t2 160q2 70 0 190q-2 125 2 256q2 131 6 207q2 70 -4 145q-2 12 -2 25q-33 -6 -82 -14q-82 -14 -137 -23l-52 -8q-33 -4 -58.5 15.5t-29.5 51z" />
<glyph unicode="2" horiz-adv-x="985" d="M56.5 980.5q-9.5 30.5 4.5 59.5l17 27q10 20 29.5 43t36 38t59.5 52q104 94 166 119q66 25 151 20q94 -2 174 -59q78 -55 105 -115q23 -53 24 -143q0 -86 -28 -184q-27 -96 -66 -162q-35 -59 -115 -180q-82 -123 -157 -213q-72 -86 -121 -138q78 -2 153 2q113 6 199 11 q84 4 125 6l39 2q33 0 56.5 -21.5t24.5 -53.5t-20.5 -55.5t-54.5 -23.5l-39 -2q-41 -2 -125 -6t-196 -10q-117 -6 -234 4h-13t-20.5 1t-27 4t-28.5 7t-26.5 13.5t-22.5 21.5t-13.5 29.5t2.5 42.5q4 31 30 55q35 33 78 80q45 47 117 131q70 82 145 197q78 119 113 176 q27 47 49 125q23 76 23 139q-2 59 -13 84q-8 20 -53 51q-41 31 -90 33q-55 2 -90 -12t-119 -89q-78 -70 -92 -94l-16 -26q-14 -27 -45 -36t-58.5 5t-37 44.5z" />
<glyph unicode="3" horiz-adv-x="937" d="M55 1036.5q-6 30.5 11 57.5l30 47q41 59 129 119q86 57 189 81q111 25 258 -36q78 -33 123 -64t65 -78q29 -70 19 -157q-12 -82 -60 -162q-33 -56 -92 -105q45 -16 72 -43q45 -43 65 -94q18 -47 21 -129q2 -80 -25 -162q-27 -86 -100 -172q-78 -88 -164 -121 q-80 -29 -172 -30q-102 -4 -156 26q-39 25 -80 64q-59 53 -63 115l-2 32q-2 31 19.5 55.5t52 26.5t55 -19.5t26.5 -51.5l3 -31q4 -6 14 -15q29 -27 55 -43q16 -8 70 -8q68 4 125 25q49 16 100 76q53 61 72 116q18 59 16 113q0 53 -10 76q-8 20 -27 39q-16 16 -65 26 q-23 4 -51 4q-39 2 -89 -6q-20 -4 -36 -6q-20 -4 -35 -6q-23 -4 -23 36t11.5 80t15.5 42q16 2 37 8q20 6 57 24q27 14 64 37q76 47 106 99q33 55 41 104q4 45 -8 74q-16 25 -107 63q-100 43 -166 27q-74 -16 -135 -60q-63 -41 -86 -75l-30 -47q-18 -25 -50 -31t-58 11.5 t-32 48z" />
<glyph unicode="4" horiz-adv-x="1122" d="M53 399q2 35 29 80q18 35 96 148q74 111 209 313q137 207 193 272q8 6 19 15.5t42 27t55.5 22.5t47 -12.5t26.5 -64.5q4 -35 4 -141q0 -100 6 -246q8 -145 21 -299q2 -24 4 -49q111 6 141 10l35 6q31 4 57.5 -14t30.5 -49t-14.5 -57.5t-48.5 -30.5l-35 -6 q-39 -4 -158 -13q2 -39 2 -73q2 -111 4 -138l2 -26q2 -31 -18.5 -55.5t-52 -26.5t-56 18.5t-26.5 50.5l-2 29q-2 29 -4 146v67q-39 -2 -76 -4q-113 -6 -236 -10q-131 -6 -188 4l-8 1q-7 1 -12 2t-15 4t-18.5 7t-17.5 9.5t-15 13.5t-12.5 17t-8.5 23.5t-2 28.5zM238 440 q43 -2 106 2q123 4 234 11q36 2 73 4q-2 23 -4 43q-12 158 -20 307q-4 113 -6 203q-45 -63 -105 -154q-135 -205 -211 -315q-43 -61 -67 -101z" />
<glyph unicode="5" horiz-adv-x="870" d="M53.5 251.5q3.5 31.5 29.5 51t57.5 15t49.5 -28.5l9 -13q16 -14 73 -55q66 -49 107 -59q31 -6 94 18q70 27 117 78q49 53 62.5 91t11.5 100q-2 55 -31 108q-29 51 -72 78q-41 27 -88 27q-49 0 -98 -27q-59 -31 -92 -64q-8 -4 -20.5 -10t-42.5 -15t-52.5 -9t-39.5 20.5 t-15 60.5q2 27 4 117q4 88 -2 256q-8 176 -4 232q4 115 86 131q29 6 75 8q45 4 164 -4q119 -6 166 -15q47 -8 80 -16l29 -6q31 -8 48 -36t9 -58.5t-35.5 -47t-58.5 -8.5l-29 7q-27 8 -66.5 14t-150.5 12t-147 4h-19q0 -57 6 -211q6 -152 4 -243q14 8 29 16q84 45 172 45 q92 0 170 -49t125 -135q45 -84 49 -176q4 -90 -20.5 -158t-94.5 -141q-70 -78 -174 -119q-109 -43 -188 -23q-68 16 -158 82q-8 6 -27.5 20.5t-25.5 18.5t-17.5 13.5t-18.5 16.5t-13 15l-10 15q-20 25 -16.5 56.5z" />
<glyph unicode="6" horiz-adv-x="866" d="M55 463q-4 137 0 248q4 117 41 231q35 115 76 178q43 68 125 127q82 57 186 86q109 29 176 17q61 -12 93 -29l20 -10q29 -14 39 -45t-4 -58.5t-45 -38t-57 4.5l-23 10q-12 6 -51 14q-35 6 -107 -12q-78 -23 -137 -64t-86 -84q-29 -47 -59 -143q-19 -58 -27 -119q6 2 12 2 q76 16 135 17q63 0 148 -27q90 -29 158 -92q66 -66 104 -156q37 -88 37 -158q0 -72 -43 -157q-41 -86 -123 -152q-84 -66 -168 -80q-90 -16 -190 37q-96 53 -162 180q-63 121 -68 273zM207 612q0 -68 2 -145q4 -117 51 -207q43 -84 100 -115q51 -29 89 -22q45 8 98 51 q55 43 82 98q27 53 26 90q0 39 -24 101q-27 59 -70 100q-41 41 -96 58q-61 20 -103 20q-45 0 -104 -12q-33 -6 -47 -13z" />
<glyph unicode="7" horiz-adv-x="1042" d="M54 1204.5q-5 30.5 13.5 57t49.5 32.5l28 4q35 8 154 11q115 4 250 6q137 2 242 -4q100 -6 118 -6q43 0 62.5 -17.5t17.5 -43t-10 -50.5t-18 -43l-11 -16q-41 -51 -102 -134q-57 -76 -96 -180q-41 -115 -80 -246q-39 -127 -49 -223q-12 -102 -15 -149l-2 -51 q-2 -31 -25.5 -52.5t-54 -20.5t-53 24.5t-20.5 54.5l2 51q2 53 14 162q14 111 55 250q41 135 84 251q45 127 117 222q25 35 47 63q-96 6 -221 4q-133 -2 -246 -4q-109 -4 -131 -8l-31 -6q-31 -6 -57.5 12.5t-31.5 49z" />
<glyph unicode="8" horiz-adv-x="882" d="M59 387q23 113 93 186q49 50 131 105q-8 20 -7 43q-29 41 -59 115q-51 123 -37 225q14 115 113 190q94 74 233 70q143 -6 226 -94q86 -90 77 -195q-6 -92 -81 -190q-70 -88 -150 -144q-16 -10 -35 -22q57 -41 103 -86q76 -74 110 -187q41 -123 -4 -223 q-47 -102 -203 -153q-152 -49 -280 4q-125 51 -187 137q-68 96 -43 219zM211 356q-12 -57 16 -98q37 -51 119 -86q78 -31 174 0q92 31 113 72q20 45 -2 112q-25 76 -72 123q-57 55 -131 103q-4 2 -6 4q-4 -4 -8 -6q-102 -63 -150 -113q-41 -41 -53 -111zM332 1040 q-8 -63 26 -145q35 -86 58 -102l20 -19q41 27 74 51q61 41 117 111q47 61 49 108q2 37 -35 78q-41 41 -121 45q-82 2 -133 -37q-47 -37 -55 -90z" />
<glyph unicode="9" horiz-adv-x="954" d="M53 926q-6 143 111 266q113 119 258 135q139 16 248 -43q111 -59 161 -174q43 -100 60 -205q16 -102 8 -205q-4 -78 -16 -141q-4 -18 -9 -37q-18 -76 -55 -172q-39 -109 -114 -180q-70 -68 -158 -115q-92 -47 -205 -55q-113 -6 -158 8l-32 10q-31 10 -46.5 38t-5 58.5 t38 45t58.5 6.5l32 -10q23 -6 103 -2q80 6 143 39q68 35 123 88q49 47 78 122q23 58 37 109q-53 -8 -138 -8q-115 2 -235 49q-125 51 -201 141q-80 96 -86 232zM207 932q4 -84 49 -139q51 -61 141 -97q94 -37 181 -39q90 0 127 9l38 10q2 18 5 35q6 86 -9 170 q-12 86 -49 168q-29 66 -94 100q-66 37 -158 27q-88 -10 -162 -91q-72 -76 -69 -153z" />
<glyph unicode=":" horiz-adv-x="274" d="M53 156.5q0 31.5 22.5 54t54 23t54.5 -22.5l6 -6q23 -23 23 -54.5t-22.5 -54t-54.5 -22.5t-54 22l-6 6q-23 23 -23 54.5zM63 860.5q0 32.5 23 54t54.5 21.5t54.5 -23l6 -6q23 -23 22.5 -54.5t-23 -54t-54 -22.5t-54.5 23l-6 6q-23 23 -23 55.5z" />
<glyph unicode=";" horiz-adv-x="348" d="M57.5 -138.5q-10.5 29.5 4 58.5t42.5 39l13 4q6 6 12 17q10 16 12 51q2 43 -8 71l-14 43q-10 31 4 59.5t44 39t58.5 -3.5t38.5 -45l15 -43q18 -55 16 -125q-2 -80 -39 -133q-39 -57 -82 -74l-18 -6q-31 -10 -59.5 4t-39 43.5zM123 846q0 33 21.5 55.5t54.5 22.5t53 -23 l6 -6q23 -23 23 -55.5t-21.5 -54t-54.5 -21.5t-55 22l-7 7q-20 20 -20 53z" />
<glyph unicode="=" horiz-adv-x="874" d="M54 762q-5 31 13.5 57.5t49.5 30.5l37 6q41 8 208 12q162 6 256 9q92 2 111 2h16q33 0 55.5 -24t21.5 -54.5t-23.5 -53t-55.5 -22.5h-16q-14 0 -106 -2t-254 -6q-156 -6 -189 -12l-35 -7q-31 -4 -57.5 14.5t-31.5 49.5zM105.5 372.5q-5.5 30.5 13 57.5t51.5 31l41 6 q47 8 213 14q162 4 227 2h80h14q33 0 55.5 -23.5t22.5 -54t-22.5 -53t-55.5 -22.5h-14h-82q-63 2 -221 -2q-156 -6 -192 -13l-43 -6q-31 -4 -56.5 14.5t-31 49z" />
<glyph unicode="?" horiz-adv-x="892" d="M53 1100.5q0 31.5 23 54.5l49 45q59 55 154 98q100 47 210 41q111 -6 199 -57q98 -55 133 -145q35 -86 13 -179q-20 -90 -80 -149q-41 -43 -76 -86q-33 -41 -70 -105q-35 -59 -41 -102q-10 -59 -14 -76l-4 -14q-6 -31 -34 -48.5t-58.5 -9t-47 35t-10.5 57.5l4 14 q2 12 13 66q10 72 59 153q45 78 84 125t84 96q29 29 41 78q10 47 -6 88q-14 39 -66 68q-57 33 -131 37t-139 -27q-72 -33 -111 -69l-49 -48q-23 -20 -54.5 -19t-53 23.5t-21.5 54zM380.5 119q0.5 33 23 54.5t54 21t54.5 -20.5l6 -6q23 -23 23 -55.5t-22.5 -54t-54.5 -21.5 t-54 22l-7 7q-23 20 -22.5 53z" />
<glyph unicode="@" horiz-adv-x="1591" d="M74 178q-45 238 8 426q53 182 170 336q117 152 264 254t305 135q162 31 281 -10q117 -39 231 -166q111 -125 156 -262q45 -131 49 -281q4 -152 -37 -286q-45 -154 -192 -238q-72 -43 -152 -41t-141 55q-6 -6 -17 -12l-16 -8q-35 -16 -123 -19q-100 -2 -196 72 q-102 80 -109 236q-6 139 49 254q55 113 144 184q92 76 174 84l61 8q31 4 55.5 -16.5t28.5 -51.5t-14 -55l-2 -31q-4 -57 2 -280q6 -197 65 -250q23 -20 44.5 -20t70.5 24q92 53 121 150q35 111 30 235q-4 127 -41 240q-37 106 -124 207q-88 96 -168 125q-78 27 -199 2 q-127 -25 -250 -111q-125 -88 -227 -219q-100 -131 -146 -287q-43 -152 -4 -354q37 -197 140 -303q106 -106 297 -160q193 -53 309 -29q127 25 184 47l66 27q29 10 58.5 -2t40.5 -42t-1 -58.5t-43 -40.5l-64 -27q-70 -27 -211 -55q-154 -31 -380 33q-231 63 -365 200 q-135 139 -182 381zM707 375q4 -84 51 -119q53 -41 98 -41q43 2 62 4l14 8h2q-31 88 -35 232q-6 190 -4 264q-25 -12 -51 -35q-61 -51 -103 -133q-39 -80 -34 -180z" />
<glyph unicode="A" horiz-adv-x="1529" d="M56 19q-3 11 -3 22q0 15 6 29l37 92q39 92 127 282q84 186 153.5 345t155.5 362q86 207 113 258q23 47 49 64q21 13 44 13q13 0 26 -4q37 -12 53 -38q12 -23 82 -156q70 -131 134.5 -265t150.5 -316q88 -186 143 -306q51 -117 88 -190q37 -76 49 -102q11 -29 11 -51 q0 -13 -4 -23q-11 -27 -43.5 -39t-57 -15.5t-33.5 -0.5q-57 8 -192 16q-66 5 -140 5t-155 -5q-166 -10 -301 -23q-135 -12 -236 -22q-104 -8 -137 -8h-26h-2q-39 0 -64 34q-20 16 -28 42zM238 100q27 2 61 4q100 8 236 21q137 12 305 22q99 7 188 7q66 0 127 -4 q72 -4 123 -9l-2 2q-37 76 -90 197q-53 117 -139 299q-88 184 -152 317q-63 131 -131 263q-12 20 -21 36q-29 -63 -69 -163q-86 -203 -155.5 -363t-156.5 -348q-86 -188 -122 -279z" />
<glyph unicode="B" horiz-adv-x="1054" d="M53 1196v9q-1 21 7 41q10 24 17 31t23 26q43 41 129 67q72 21 159 21h15q94 -2 172 -21q84 -18 152 -65q70 -47 102 -107q33 -57 41 -123q4 -32 4 -64t-4 -65q-10 -70 -47 -133q-16 -30 -41 -57q74 -29 129 -82q61 -59 80 -131q11 -42 11 -88q0 -23 -3 -47 q-8 -74 -65 -168q-53 -90 -148 -158q-92 -66 -206 -96q-115 -31 -230 -33q-113 0 -149 6l-31 6q-35 6 -55 37q-18 25 -19 53l2 56q1 37 1 94v61q-1 100 -7 240q-2 63 -4 133q-4 72 -6 127q-4 117 -12 215q-8 100 -11 152q-4 51 -6 63zM209 1192q2 -18 4 -49q2 -49 10 -150 q8 -102 13 -221q0 -8 1 -22.5t1 -20.5q49 14 133 31q84 16 153 20q14 4 27 11q20 6 43 16q18 10 41 24q37 25 55 58q20 37 27 78q4 28 4 54q0 17 -2 34q-4 37 -23 67q-16 29 -57 56q-43 31 -98 43q-63 14 -140 16h-16q-64 0 -113 -14q-47 -14 -63 -31zM246 514 q6 -143 6 -248q1 -50 1 -89t-1 -68q35 -2 96 -3q96 2 191 27q90 25 157 74q68 49 107 115q39 63 45 102q1 12 1 24q0 30 -7 58q-6 29 -35 55q-35 33 -80 51q-35 12 -88 17q-16 2 -35 2q-24 0 -51 -2q-37 -10 -80 -23q-80 -20 -154 -37q-45 -10 -73 -16v-39z" />
<glyph unicode="C" horiz-adv-x="1105" d="M57 995l13 39q12 43 36 101q29 70 95 127q61 53 133 86q74 35 153 41q16 2 33 2q68 0 146 -27q96 -35 149 -84q47 -45 98 -125t82 -156t41 -155q10 -74 17 -191q2 -32 2 -63q0 -88 -13 -170q-18 -119 -60 -193.5t-101 -128.5q-63 -53 -191 -88q-97 -26 -179 -26 q-22 0 -44 2q-100 6 -174 41q-78 37 -119 92q-39 53 -49 129q-10 63 -10 94v25q0 31 22.5 54t54 23t54 -23.5t22.5 -53.5v-25q0 -18 8 -70q6 -39 23 -63q16 -23 59 -43q47 -23 119 -27q13 -1 28 -1q64 0 144 22q94 25 131 57q39 33 68 83t41 142q12 71 12 146q0 28 -2 57 q-4 111 -14 178q-10 61 -33 121q-25 59 -68 127q-41 66 -75 98q-29 27 -95 50q-52 19 -94 19q-9 0 -18 -1q-53 -6 -105 -29q-51 -25 -94 -61q-39 -35 -55 -72q-20 -51 -33 -86l-12 -41q-8 -29 -37 -44t-60 -5q-30 11 -44 39q-9 17 -9 33q0 12 4 24z" />
<glyph unicode="D" horiz-adv-x="1165" d="M55 1178q-2 14 -2 27q0 65 49 104q43 31 131 39q32 3 67 3q48 0 103 -5q96 -6 193 -27q98 -23 158 -49q61 -29 137 -88q78 -61 123 -138q43 -74 73 -188q27 -94 26 -171q0 -19 -1 -36q-8 -88 -41 -176q-33 -82 -70 -151q-41 -76 -96 -134q-53 -53 -133 -106 q-80 -55 -156 -82q-72 -27 -141 -45q-72 -20 -133 -25q-55 -6 -104 -6h-45q-27 0 -48.5 17.5t-27.5 44.5q-41 23 -41 67v15q0 16 2 82v208q-2 147 -2 277q0 129 -4 247.5t-9 190.5q-4 70 -8 105zM209 1190q4 -41 8 -109q4 -74 8 -194.5t4 -251.5t2 -275v-215q-2 -47 -2 -67 h9q43 0 92 4q45 4 104 20q63 18 129 41q59 23 123 66q66 45 109 88q41 41 71 98q33 61 62 133q25 68 30 134q1 13 1 26q0 55 -19 129q-25 92 -57 148q-31 53 -88 96q-59 49 -105 69q-45 20 -127 37q-86 18 -172 27q-42 3 -78.5 3t-66.5 -3q-20 -2 -37 -4z" />
<glyph unicode="E" horiz-adv-x="985" d="M53 1247q2 60 35 94q31 35 82 37q41 2 111 6q68 2 139 9q30 2 67 3q57 0 131 -6q120 -10 150 -16l20 -6q31 -8 47.5 -35.5t9.5 -58.5t-34.5 -47t-58.5 -8l-23 6q-20 4 -123 12q-61 5 -109 5q-36 0 -65 -3q-74 -6 -145 -8q-45 -2 -80 -4q0 -55 8 -172q8 -133 10 -285h94 q72 2 158 4l74 2q31 0 54.5 -21.5t24.5 -53t-21.5 -55t-53.5 -23.5l-74 -2q-74 -2 -159 -5h-93q4 -86 9 -172q4 -114 4 -196v-51q-2 -90 -9 -144h12.5h14.5h207q125 0 219 10q98 14 129 19l31 4q31 4 56 -16q26 -20 30 -50q1 -5 1 -10q-1 -26 -17 -46q-20 -26 -50 -30 l-30 -6q-31 -4 -131 -16q-104 -12 -238 -12h-206h-103q-27 2 -61 30q-27 22 -27 54q0 9 2 18q2 12 8 61q6 45 8 136v49q0 79 -4 190q-8 152 -10 312q-4 158 -13 294q-8 119 -8 181v22z" />
<glyph unicode="F" horiz-adv-x="892" d="M53 432q0 180 10 369q9 167 9 257v17v133q-2 45 0 62q4 43 33.5 62.5t58.5 21.5q8 1 25 1q34 0 102 -3q47 -2 96 -2t100 2q109 4 191 6l84 2h5q27 0 49 -20q25 -23 25 -58q1 -30 -21 -52t-54 -24l-82 -2q-82 -2 -190 -6q-56 -2 -108.5 -2t-102.5 2q-33 2 -58 2v-123v-35 q0 -93 -8 -249q-2 -41 -4 -80q29 3 95 3q33 0 75 -1q143 -2 199 -2l55 -2q31 0 53.5 -22.5t22.5 -54.5t-22.5 -54.5t-55.5 -22.5l-55 2q-55 0 -201 2q-34 1 -61 1q-81 0 -103 -5h-8v-125q0 -178 2 -268l2 -90q2 -33 -20.5 -55.5t-54.5 -23.5h-3q-29 -1 -51 21t-25 54l-2 90 q-2 92 -2 272z" />
<glyph unicode="G" horiz-adv-x="1159" d="M53 618v36q0 127 25 220q28 107 100 224q76 119 157 181t175 89q59 18 121 18q37 0 74 -6q98 -14 139 -41q39 -25 96 -100q51 -72 84 -137q31 -61 45 -101l14 -34q12 -29 0 -58.5t-40.5 -41t-58.5 0.5t-42 41l-14 35q-14 33 -41 90q-27 53 -70 113q-39 51 -57 63 q-16 10 -80 19q-22 4 -45 4q-41 0 -82 -12q-66 -20 -125 -64.5t-119 -140.5q-61 -96 -83 -181q-20 -72 -20 -175q0 -18 1 -37q4 -123 41 -207q41 -92 90 -160q43 -59 100 -92q59 -33 129 -37q16 -1 31 -1q51 0 98 15q59 23 84 45q29 25 62 76t55 111q25 66 39 121 q6 27 10 47q-25 2 -59 6q-57 4 -119 8q-57 2 -94 2l-41 -2q-31 -2 -54.5 19.5t-24.5 53t20.5 55.5t52.5 26h41q22 1 49 1t59 -1q61 -4 123 -11q63 -4 94 -8q63 -6 94 -49q20 -28 20 -67q0 -14 -3 -29q-4 -29 -21 -90q-16 -61 -41 -133q-29 -78 -71 -144q-43 -68 -88 -106 q-47 -43 -138 -74q-72 -27 -151 -27q-19 0 -39 2q-100 8 -190 56q-88 49 -152 137q-59 82 -104 188q-49 111 -56 264z" />
<glyph unicode="H" horiz-adv-x="1107" d="M53 1300v6q1 28 19 50q20 24 52 27t56.5 -18.5t26.5 -51.5l4 -51q4 -51 18 -283q6 -127 11 -240h15q44 0 151 -8q145 -10 264 -16q86 -4 141 -5q18 0 33 1q41 2 57 4q2 78 2 148q0 105 -4 190q-4 154 -10 215l-6 63q-2 31 18.5 55.5t50.5 27.5h8q26 0 48 -17 q26 -20 28 -51l6 -64q6 -66 12 -224q3 -91 3 -201q0 -80 -2 -171q-4 -213 -8 -330q-4 -115 -5 -190v-94v-19q0 -31 -22.5 -53.5t-53 -22.5t-54 23t-23.5 53v19v92q0 80 4 198q4 78 6 197q-20 0 -47 -2q-17 -1 -38 -1q-62 0 -155 5q-119 8 -264 19q-100 6 -153 6v-11.5v-11.5 q0 -182 -2 -303t-2 -154v-32q0 -31 -22.5 -54.5t-54.5 -23.5t-54.5 23.5t-22.5 54.5v32q0 35 2 156q2 119 2 303q0 180 -12 406q-14 229 -19 278z" />
<glyph unicode="I" horiz-adv-x="266" d="M53 631v229t2 211q1 46 1 84t-1 68l-2 61q0 31 21.5 54.5t53.5 24.5h3q31 -1 53 -21q24 -22 23 -54l2 -61q1 -30 1 -70.5t-1 -89.5q-2 -94 -2 -209v-227q0 -113 2 -221q2 -111 4 -193v-111v-24q0 -33 -22.5 -55.5t-53.5 -22.5t-54.5 22.5t-23.5 55.5v24v109q-2 84 -4 193 t-2 223z" />
<glyph unicode="J" horiz-adv-x="1179" d="M53 236v16q0 31 22.5 54.5t54.5 23.5t54.5 -23.5t22.5 -54.5v-16q0 -10 4 -37q2 -20 16 -54q8 -20 39 -39q37 -23 90 -30q14 -2 28 -2q37 0 74 12q52 16 91 53q43 39 80 105q35 63 45 143q14 88 20 195q4 109 4 268q0 160 -8 274q-4 84 -6 117q-96 6 -113 6h-24 q-31 0 -54.5 22.5t-23.5 54.5t23.5 54.5t54.5 22.5h24q25 0 164 -8q135 -8 195 -11q61 -2 94 -4l31 -2q33 0 54 -24q19 -23 19 -50v-6q-2 -30 -25.5 -51.5t-55.5 -21.5l-31 2q-33 2 -92 4q-33 2 -86 4q2 -33 6 -98q8 -119 8 -284t-6 -278q-4 -113 -19 -211 q-16 -106 -65 -192q-47 -86 -107 -143q-66 -61 -151 -88q-58 -19 -117 -19q-27 0 -53 4q-84 12 -148 51q-70 43 -98 107q-25 53 -31 98q-4 37 -4 56z" />
<glyph unicode="K" horiz-adv-x="1128" d="M53 1317v5q1 28 19 52q20 26 51 27h5q28 -1 50 -19q24 -20 29 -51l2 -33q4 -35 12 -233q8 -174 8 -365q47 41 117 111q100 102 201 197q98 92 178 180q90 96 115 115l18 12q25 18 56.5 13t50 -30.5t12.5 -57.5t-31 -50l-18 -12q-18 -16 -88 -93q-86 -94 -187 -188 q-88 -84 -178 -174q29 -29 107 -100q117 -111 174 -168q59 -57 127 -125q72 -70 108 -109q33 -37 45 -47l15 -14q26 -20 26 -54q1 -32 -21 -54t-54.5 -23.5t-55.5 18.5l-14 14q-16 14 -53 56q-35 37 -103 102q-70 68 -129 127q-55 57 -170 164q-74 70 -112 104 q-41 -39 -72 -63l-53 -43q-4 -4 -9 -6v-228q2 -156 5 -194l2 -43q2 -31 -20.5 -54.5t-53.5 -24.5h-3q-29 0 -51 20q-24 22 -26 53l-2 43q-2 41 -2 198q-2 158 -2 375q-2 217 -10.5 411.5t-10.5 225.5z" />
<glyph unicode="L" horiz-adv-x="800" d="M53 49v182q0 129 6 265q4 131 4 284q0 154 3 287q1 62 1 108.5t-1 77.5l-3 62q0 33 21.5 55.5t53.5 23.5h3q31 0 53 -20q24 -22 23 -55l2 -62q1 -32 1 -80.5t-1 -115.5q-2 -129 -2 -281q0 -158 -6 -291q-4 -131 -4 -258v-118h16q94 2 226.5 3t177.5 1h45q31 0 53.5 -22.5 t22.5 -54.5t-23 -54.5t-53 -22.5h-45h-176q-129 -2 -226 -4l-11 -2t-25.5 -3t-34 -1t-37 5t-31.5 14.5t-23.5 28.5t-9.5 48z" />
<glyph unicode="M" horiz-adv-x="1347" d="M53 59l6 70q3 45 3 160q0 58 -1 133q-2 233 -2 422q-2 190 -4 278q-1 45 -1 74.5t1 44.5q1 45 21 61q12 10 27 11q9 -1 20 -5q27 -10 53.5 -27t44.5 -34l19 -16q41 -72 94 -184q49 -109 108 -232q61 -125 97 -211q35 -84 82 -180q39 -86 65 -154q16 53 39 121 q45 135 88 258t70 207q27 88 63 188q33 92 47 148q14 61 19 78q8 33 44 41q13 3 27 3q21 0 43 -8q34 -14 41 -34q8 -23 27 -160q18 -131 27 -258q8 -123 20 -311t25 -285q12 -96 20 -147l8 -52q2 -8 2 -15q0 -22 -14 -42q-18 -26 -50 -32q-7 -1 -13 -1q-25 1 -45 15 q-26 18 -31 51l-8 51q-8 53 -21 154q-12 100 -27 292q-12 197 -20 312q-2 33 -6 67q-16 -51 -33 -100q-27 -86 -70 -213q-43 -123 -87 -255t-70 -214q-2 -8 -7.5 -21.5t-21.5 -44t-34.5 -48t-48.5 -14.5t-58 38q-16 18 -33 47q-18 29 -47 107q-25 70 -70 165 q-47 100 -84 187q-35 84 -92 205q-49 100 -92 192v-98q0 -190 2 -420q1 -78 1 -138q0 -120 -3 -169l-6 -70q-2 -31 -26.5 -51.5t-56.5 -18t-52 26.5q-19 22 -19 50v5z" />
<glyph unicode="N" horiz-adv-x="1126" d="M54 774v97q0 93 1 169q2 114 6 189l5 90q0 37 23.5 51t53 7t54 -16t26.5 -15q10 -23 51 -101q39 -78 115 -192q78 -119 168 -256q88 -133 182 -262q96 -133 144 -205q16 -27 35 -56q-4 127 -9 310q-5 140 -5 249q0 37 1 70q1 43 1 83q0 79 -3 144q-4 94 -10 150l-10 59 q-4 31 15 57q20 24 50 30l14 2q22 0 42 -16q26 -20 32 -50l8 -62q8 -63 13 -165q3 -67 3 -148q0 -41 -1 -86q-1 -32 -1 -68q0 -107 5 -245q4 -178 8 -316q4 -131 4 -194q-2 -10 -5 -23.5t-15.5 -45.5t-27.5 -49t-42 -17t-57 32q-18 20 -76 115q-53 86 -98 156t-140 196 q-96 133 -186 271q-90 135 -168 256q-29 43 -51 80v-5v-8q-1 -75 -1 -167v-95q1 -149 5 -299q6 -154 8 -285t2 -157l-2 -25q0 -31 -22.5 -53.5t-54 -22.5t-54 23.5t-22.5 54.5l2 25q0 25 -2 153q-2 131 -9 281q-4 153 -5 305z" />
<glyph unicode="O" horiz-adv-x="1185" d="M59 481q-6 52 -6 106q-1 83 13 173q22 148 59 237q39 88 80 144q45 61 123 106q70 37 141 62q76 27 127 30q16 1 29 1q27 0 45 -3l16 -2q21 -2 37 -16h4q115 -23 201 -88q82 -63 128 -139t62 -172q15 -83 15 -172v-11q-2 -100 -43 -235q-39 -135 -80 -205 q-39 -66 -101 -139q-68 -80 -161 -127q-90 -43 -181 -54q-22 -2 -44 -2q-68 0 -130 19q-86 27 -157 96q-68 68 -115 162q-47 96 -62 229zM211 498q12 -106 47 -176q35 -72 86 -121q45 -45 94 -62q36 -10 77 -10q18 0 36 2q63 6 129 39q63 31 113 86q53 63 84 119 q31 53 65 170q35 117 37 194v20q0 69 -12 134q-10 68 -42 119t-91 98q-57 43 -136 57l-90 19q-35 -2 -88 -21q-61 -23 -119 -53q-47 -27 -73 -61q-31 -43 -62 -115q-29 -70 -48 -199q-12 -79 -12 -151q0 -45 5 -88z" />
<glyph unicode="P" horiz-adv-x="1050" d="M53 1243q0 12 2 24.5t6.5 21.5t9.5 16.5t12 12.5t13 10t14.5 8t12.5 4t10 3.5t8 2.5q45 16 138 22q33 2 67 2q57 0 119 -6q102 -10 225 -68q123 -55 203 -143q87 -92 101 -169q5 -25 4 -49q0 -52 -21 -104q-27 -72 -90 -133q-59 -59 -154 -106q-88 -43 -186 -72 q-98 -31 -182 -37q-61 -6 -111 -8q3 -93 2 -175v-79q-2 -137 -6 -164l-4 -22q-4 -31 -30 -49q-21 -15 -46 -16q-6 0 -12 1q-32 4 -50 31t-14 57l4 21q2 23 4 143v66q0 102 -4 221v12q-4 14 -5 24.5t3 22.5q-4 129 -12 256q-8 156 -14 236q-4 78 -11 119q-4 47 -6 63z M211 1206q2 -6 2 -8q4 -45 10 -127t15 -237q6 -103 10 -205q47 2 104 6q68 6 152 31q84 27 162 63q72 37 114 78q39 39 56 80q8 23 8 46q0 11 -2 23q-6 34 -62 93q-59 66 -155 108q-98 45 -176 53q-54 6 -103 6q-29 0 -57 -2q-47 -2 -78 -8z" />
<glyph unicode="Q" horiz-adv-x="1241" d="M53 637v27q0 111 29 219q35 127 125 225q86 96 188 156q102 59 189 82q78 20 122 20h11l33 -2q36 -2 59 -33q18 -4 35 -10q88 -27 170 -90q88 -68 133 -184q43 -111 43 -218q-2 -96 -25 -204q-23 -111 -88 -217q-66 -106 -157 -187q-33 -27 -68 -47q25 -41 49 -82 q63 -104 84 -149q20 -41 27 -56l6 -12q12 -29 1 -59.5t-40 -43.5q-15 -6 -30 -6q-14 0 -29 6q-29 11 -41 38l-9 14q-6 14 -24 53q-16 37 -76 137q-31 49 -59 97q-14 -4 -29 -9q-86 -24 -158 -24q-47 0 -88 10q-109 27 -217 139q-104 109 -133 203q-27 86 -33 207zM207 643 q4 -102 24 -168q18 -59 99 -141q76 -80 141 -94q25 -6 55 -6q43 0 97 12q-39 57 -52 71l-16 21q-18 25 -14 56.5t28.5 51t56.5 15.5t52 -29l16 -22q18 -23 74 -107q27 16 51 35q74 66 127 149q51 84 70 170q20 92 20 174q0 76 -32 160q-29 78 -84 119q-59 45 -119 64 q-63 20 -86 20h-31q-18 0 -35 8q-12 -2 -26 -6q-66 -16 -150 -66q-84 -47 -151 -124q-66 -72 -91 -164q-25 -84 -25 -169q0 -15 1 -30z" />
<glyph unicode="R" horiz-adv-x="952" d="M53 1217v10q-1 27 9 47q12 24 35.5 34.5t42 15.5t42.5 7l23 2q51 10 118.5 10t151.5 -10q174 -20 266 -88q90 -66 127 -127q32 -58 33 -120q0 -13 -2 -25q-6 -70 -68 -158q-51 -78 -133 -131q47 -33 80 -76q37 -53 53 -123q12 -55 21 -110q8 -57 10 -113q2 -53 2 -102 q0 -51 -2 -74l-2 -20q-2 -30 -26 -52q-22 -19 -48 -19h-8q-30 3 -51.5 27.5t-17.5 55.5v20q2 16 2 62q0 45 -2 94t-11 98q-6 49 -18 101q-8 39 -27 65q-20 27 -53 47q-23 12 -49 19q-16 4 -33 6h-14q-10 -2 -19 -6q-102 -39 -204 -66q-35 -10 -58 -12q2 -96 4 -166 q2 -64 2 -112.5t-2 -82.5l-4 -63q-2 -31 -26.5 -51.5t-56 -18.5t-52 25.5t-18.5 56.5l4 62q2 30 2 74t-2 104q-2 100 -6 256v74q-4 207 -5 311q-2 100 -5 164.5t-5 77.5zM211 1178q0 -14 2 -31q2 -68 4 -172q0 -97 2 -287q70 35 150 47q57 8 106 10q33 12 64 27q33 16 61 33 q66 37 105 96q39 55 40 88q1 5 1 11q0 21 -13 42q-18 33 -82 78q-59 45 -194 62q-72 8 -127 8t-94 -8q-14 -2 -25 -4z" />
<glyph unicode="S" horiz-adv-x="991" d="M55 276v15q4 33 30 52t56.5 16t51 -28.5t16.5 -56.5v-4q4 -14 16 -34q18 -37 70 -70q42 -29 137 -29h12q106 2 172 41q66 37 101 92q37 57 43 107q2 15 2 29q0 33 -10 61q-12 35 -45 61q-37 29 -125 54q-100 29 -179 47q-96 23 -190 106q-99 89 -99 239q0 11 1 23 q8 160 104 246q84 78 195 111q62 18 119 17q50 0 96 -13q94 -27 162 -86q70 -61 100 -142q23 -66 35 -106l10 -37q4 -12 4 -24q0 -19 -10 -35q-16 -28 -46 -36.5t-58 6.5t-38 46l-10 37q-10 35 -33 96q-16 45 -55 80q-43 35 -104 53q-24 7 -52 7q-35 0 -75 -11 q-78 -23 -137 -76q-47 -43 -54 -141q0 -7 -1 -13q0 -82 48 -126q66 -57 125 -72q80 -20 183 -49q117 -31 180 -82q68 -53 94 -131q18 -50 18 -105q0 -27 -4 -55q-10 -84 -65 -168q-53 -86 -152 -143q-100 -57 -248 -61h-11q-144 0 -226 53q-82 55 -119 125q-4 6 -12 21.5 t-10 20.5l-10 20q-6 12 -5 20z" />
<glyph unicode="T" horiz-adv-x="1193" d="M53 1239v5q1 28 21 50q22 24 53 25l37 2q37 0 207 4t321 10q122 6 202 6h37q87 -2 116 -4l26 -2q31 -5 51 -29q18 -21 18 -47v-7q-3 -30 -27.5 -51t-55.5 -19l-27 2q-22 2 -104 3h-25q-78 0 -205 -5v-17q-2 -33 -4 -141q-2 -111 -4 -259.5t-4 -310t-6 -261.5 q-2 -100 -4 -127l-2 -25q0 -33 -24 -55q-22 -20 -51 -19h-5q-31 2 -52.5 25.5t-21.5 54.5l2 27q2 25 4 125q4 96 6 258q2 168 5 311q2 150 4 258q2 113 4 148v2q-82 -2 -170 -5q-170 -2 -205 -4l-37 -2q-31 -2 -54.5 20.5t-25.5 53.5z" />
<glyph unicode="U" horiz-adv-x="1081" d="M53 899q0 96 2 236q2 137 2 155v21q0 31 23.5 53t54.5 22t53.5 -22t22.5 -53v-21q0 -20 -2 -157t-2 -232q0 -94 14 -285q10 -180 68 -303q53 -117 96 -145q36 -24 77 -24q6 0 13 1q57 4 98 27q41 25 101 127q68 113 94.5 180.5t57 211t36.5 255.5q8 117 10 199l2 84 q0 31 24 53.5t55.5 21.5t53 -25t21.5 -54l-2 -84q-2 -84 -10 -205q-8 -125 -41 -278.5t-63.5 -233.5t-104.5 -203q-82 -137 -156 -180t-166 -49q-13 -1 -26 -1q-87 0 -158 48q-80 53 -151 211q-68 147 -82 356q-14 195 -15 293z" />
<glyph unicode="V" horiz-adv-x="1234" d="M56 1276q6 30 32 48q19 12 41 12q9 0 18 -2q32 -7 48 -34l45 -71q49 -76 139 -293q88 -217 137 -406q41 -158 78 -268q6 18 10 27q41 115 129 323q88 211 170 375q80 160 105 227l26 72q10 29 40 42q16 7 32 7q14 0 28 -5q30 -12 42 -40q7 -15 8 -30q0 -14 -6 -27 l-27 -72q-27 -76 -111 -241q-78 -162 -166 -367q-86 -207 -126 -317q-41 -111 -64 -170v-8.5t-4 -16.5t-9 -23.5t-15.5 -22.5t-22.5 -17.5t-31.5 -6.5t-42.5 11q-37 14 -49 57q-8 27 -51 143q-43 123 -92 310q-47 178 -131 385q-84 205 -125 270l-45 72q-12 20 -12 42 q1 7 2 15z" />
<glyph unicode="W" horiz-adv-x="1597" d="M59 1249q-6 15 -6 30q1 15 7 31q12 30 40 40q14 6 29 6t30 -6q30 -12 42 -41l37 -86q37 -92 96 -334q59 -240 121 -508q10 -53 22 -100q41 197 78 362q41 182 74 297l4 12q4 13 5 18t7 17t13.5 19.5t18.5 15.5t25 12q25 10 44.5 6t33 -9t25.5 -20.5t19 -27.5t13.5 -31.5 t9.5 -31t6 -26.5t5 -17q47 -172 117 -371q49 -135 80 -211q37 121 82 297q55 229 120 391q63 156 103 240l39 80q12 29 43 40t60 -3q28 -14 38 -44q5 -14 5 -27q0 -16 -7 -32l-39 -80q-37 -80 -100 -233q-59 -150 -115 -369q-55 -227 -100 -367q-2 -2 -5 -22.5t-8.5 -38.5 t-15.5 -44t-25.5 -39t-40 -22.5t-55.5 5.5q-39 12 -51 51q-8 25 -43 96q-37 78 -109 281q-53 150 -94 286q-16 -61 -30 -133q-41 -178 -89 -395q-6 -35 -17 -92.5t-16 -80t-17.5 -50t-28.5 -45.5q-23 -23 -62 -23t-61.5 23.5t-36.5 74.5q-14 55 -76 326q-59 268 -117 506 q-57 231 -92 311z" />
<glyph unicode="X" horiz-adv-x="1087" d="M54 108q-1 6 0 12q0 24 14 44l28 39q27 37 101 145q74 111 190 279q23 35 47 69q-49 82 -104 170q-158 256 -197 305l-43 54q-18 25 -15 57q3 30 27 50q21 17 48 17h8q32 -3 53 -28l43 -53q45 -57 207 -320q37 -61 71 -119q55 76 117 154q145 186 199 248l53 61 q20 23 53 25t56.5 -18.5t25.5 -52.5v-6q0 -28 -18 -50l-53 -60q-51 -59 -195 -243q-80 -102 -152 -199q63 -104 119 -194q119 -197 166 -279l47 -82q16 -27 8 -57t-36 -46q-18 -10 -36 -11q-10 -1 -22 3q-30 8 -47 35l-47 82q-47 80 -164 275q-39 66 -84 139q-6 -8 -10 -14 q-115 -166 -188 -277q-74 -111 -105 -149l-26 -39q-18 -25 -50 -30t-58.5 13.5t-30.5 50.5z" />
<glyph unicode="Y" horiz-adv-x="1191" d="M54 1306q3 31 28 50q21 17 48 17h8q32 -3 52 -27l35 -46q41 -49 125 -184q84 -131 176 -293q45 -76 72 -129q84 113 182 244q100 137 164 211l62 70q20 25 52 26.5t55.5 -19t25.5 -52.5v-5q0 -28 -19 -51l-59 -69q-59 -70 -158 -201q-100 -135 -178 -242 q-2 -2 -13.5 -18.5t-20.5 -27.5t-24.5 -26.5t-29.5 -25.5q0 -45 2 -117q2 -90 6 -162q2 -76 2 -110v-35q0 -31 -22.5 -53.5t-54 -22.5t-54 22.5t-22.5 53.5v35q0 33 -2 104q-4 74 -7 164q-2 90 -4 137l-2 47q0 8 2 17q-31 59 -88 160q-90 158 -172 286q-80 127 -115 168 l-36 47q-16 22 -16 49v8z" />
<glyph unicode="Z" horiz-adv-x="1132" d="M54 1241q4 31 30 49q21 15 46 16q5 0 11 -1l29 -5q27 -4 205 -6q74 -2 142 -2q102 0 190 4q150 4 215 7h7q42 0 70 -23q12 -10 21.5 -21.5t13.5 -22.5t4 -23.5t-1 -22.5t-7 -22.5t-10 -20.5t-11.5 -19.5t-11.5 -15.5t-11 -12l-7 -8q-72 -88 -170 -228 q-100 -139 -164 -237q-66 -98 -153 -228q-90 -131 -154 -211q-2 -2 -7 -8t-5 -8q10 -2 18 -2q111 -8 338 -23q231 -14 281 -18l47 -6q33 -3 53 -27q17 -20 17 -46q0 -5 -1 -10q-5 -32 -29 -52q-20 -17 -45 -18q-5 0 -10 1l-47 4q-47 4 -274 19q-231 14 -342 22 q-123 10 -156 25q-43 17 -51 69q-2 13 -2 24q0 34 18 54q16 20 78 97q59 74 146 200q86 127 151 228q68 100 168 241q80 111 143 193q-51 -2 -114 -4q-90 -4 -195 -4q-70 0 -147 2q-195 2 -226 8l-28 4q-31 5 -49 31q-15 21 -15 44q0 6 1 13z" />
<glyph unicode="a" horiz-adv-x="1529" d="M56 19q-3 11 -3 22q0 15 6 29l37 92q39 92 127 282q84 186 153.5 345t155.5 362q86 207 113 258q23 47 49 64q21 13 44 13q13 0 26 -4q37 -12 53 -38q12 -23 82 -156q70 -131 134.5 -265t150.5 -316q88 -186 143 -306q51 -117 88 -190q37 -76 49 -102q11 -29 11 -51 q0 -13 -4 -23q-11 -27 -43.5 -39t-57 -15.5t-33.5 -0.5q-57 8 -192 16q-66 5 -140 5t-155 -5q-166 -10 -301 -23q-135 -12 -236 -22q-104 -8 -137 -8h-26h-2q-39 0 -64 34q-20 16 -28 42zM238 100q27 2 61 4q100 8 236 21q137 12 305 22q99 7 188 7q66 0 127 -4 q72 -4 123 -9l-2 2q-37 76 -90 197q-53 117 -139 299q-88 184 -152 317q-63 131 -131 263q-12 20 -21 36q-29 -63 -69 -163q-86 -203 -155.5 -363t-156.5 -348q-86 -188 -122 -279z" />
<glyph unicode="b" horiz-adv-x="1054" d="M53 1196v9q-1 21 7 41q10 24 17 31t23 26q43 41 129 67q72 21 159 21h15q94 -2 172 -21q84 -18 152 -65q70 -47 102 -107q33 -57 41 -123q4 -32 4 -64t-4 -65q-10 -70 -47 -133q-16 -30 -41 -57q74 -29 129 -82q61 -59 80 -131q11 -42 11 -88q0 -23 -3 -47 q-8 -74 -65 -168q-53 -90 -148 -158q-92 -66 -206 -96q-115 -31 -230 -33q-113 0 -149 6l-31 6q-35 6 -55 37q-18 25 -19 53l2 56q1 37 1 94v61q-1 100 -7 240q-2 63 -4 133q-4 72 -6 127q-4 117 -12 215q-8 100 -11 152q-4 51 -6 63zM209 1192q2 -18 4 -49q2 -49 10 -150 q8 -102 13 -221q0 -8 1 -22.5t1 -20.5q49 14 133 31q84 16 153 20q14 4 27 11q20 6 43 16q18 10 41 24q37 25 55 58q20 37 27 78q4 28 4 54q0 17 -2 34q-4 37 -23 67q-16 29 -57 56q-43 31 -98 43q-63 14 -140 16h-16q-64 0 -113 -14q-47 -14 -63 -31zM246 514 q6 -143 6 -248q1 -50 1 -89t-1 -68q35 -2 96 -3q96 2 191 27q90 25 157 74q68 49 107 115q39 63 45 102q1 12 1 24q0 30 -7 58q-6 29 -35 55q-35 33 -80 51q-35 12 -88 17q-16 2 -35 2q-24 0 -51 -2q-37 -10 -80 -23q-80 -20 -154 -37q-45 -10 -73 -16v-39z" />
<glyph unicode="c" horiz-adv-x="1105" d="M57 995l13 39q12 43 36 101q29 70 95 127q61 53 133 86q74 35 153 41q16 2 33 2q68 0 146 -27q96 -35 149 -84q47 -45 98 -125t82 -156t41 -155q10 -74 17 -191q2 -32 2 -63q0 -88 -13 -170q-18 -119 -60 -193.5t-101 -128.5q-63 -53 -191 -88q-97 -26 -179 -26 q-22 0 -44 2q-100 6 -174 41q-78 37 -119 92q-39 53 -49 129q-10 63 -10 94v25q0 31 22.5 54t54 23t54 -23.5t22.5 -53.5v-25q0 -18 8 -70q6 -39 23 -63q16 -23 59 -43q47 -23 119 -27q13 -1 28 -1q64 0 144 22q94 25 131 57q39 33 68 83t41 142q12 71 12 146q0 28 -2 57 q-4 111 -14 178q-10 61 -33 121q-25 59 -68 127q-41 66 -75 98q-29 27 -95 50q-52 19 -94 19q-9 0 -18 -1q-53 -6 -105 -29q-51 -25 -94 -61q-39 -35 -55 -72q-20 -51 -33 -86l-12 -41q-8 -29 -37 -44t-60 -5q-30 11 -44 39q-9 17 -9 33q0 12 4 24z" />
<glyph unicode="d" horiz-adv-x="1165" d="M55 1178q-2 14 -2 27q0 65 49 104q43 31 131 39q32 3 67 3q48 0 103 -5q96 -6 193 -27q98 -23 158 -49q61 -29 137 -88q78 -61 123 -138q43 -74 73 -188q27 -94 26 -171q0 -19 -1 -36q-8 -88 -41 -176q-33 -82 -70 -151q-41 -76 -96 -134q-53 -53 -133 -106 q-80 -55 -156 -82q-72 -27 -141 -45q-72 -20 -133 -25q-55 -6 -104 -6h-45q-27 0 -48.5 17.5t-27.5 44.5q-41 23 -41 67v15q0 16 2 82v208q-2 147 -2 277q0 129 -4 247.5t-9 190.5q-4 70 -8 105zM209 1190q4 -41 8 -109q4 -74 8 -194.5t4 -251.5t2 -275v-215q-2 -47 -2 -67 h9q43 0 92 4q45 4 104 20q63 18 129 41q59 23 123 66q66 45 109 88q41 41 71 98q33 61 62 133q25 68 30 134q1 13 1 26q0 55 -19 129q-25 92 -57 148q-31 53 -88 96q-59 49 -105 69q-45 20 -127 37q-86 18 -172 27q-42 3 -78.5 3t-66.5 -3q-20 -2 -37 -4z" />
<glyph unicode="e" horiz-adv-x="985" d="M53 1247q2 60 35 94q31 35 82 37q41 2 111 6q68 2 139 9q30 2 67 3q57 0 131 -6q120 -10 150 -16l20 -6q31 -8 47.5 -35.5t9.5 -58.5t-34.5 -47t-58.5 -8l-23 6q-20 4 -123 12q-61 5 -109 5q-36 0 -65 -3q-74 -6 -145 -8q-45 -2 -80 -4q0 -55 8 -172q8 -133 10 -285h94 q72 2 158 4l74 2q31 0 54.5 -21.5t24.5 -53t-21.5 -55t-53.5 -23.5l-74 -2q-74 -2 -159 -5h-93q4 -86 9 -172q4 -114 4 -196v-51q-2 -90 -9 -144h12.5h14.5h207q125 0 219 10q98 14 129 19l31 4q31 4 56 -16q26 -20 30 -50q1 -5 1 -10q-1 -26 -17 -46q-20 -26 -50 -30 l-30 -6q-31 -4 -131 -16q-104 -12 -238 -12h-206h-103q-27 2 -61 30q-27 22 -27 54q0 9 2 18q2 12 8 61q6 45 8 136v49q0 79 -4 190q-8 152 -10 312q-4 158 -13 294q-8 119 -8 181v22z" />
<glyph unicode="f" horiz-adv-x="892" d="M53 432q0 180 10 369q9 167 9 257v17v133q-2 45 0 62q4 43 33.5 62.5t58.5 21.5q8 1 25 1q34 0 102 -3q47 -2 96 -2t100 2q109 4 191 6l84 2h5q28 0 49 -20q25 -24 25 -58q0 -30 -21 -52q-23 -22 -54 -24l-82 -2q-82 -2 -190 -6q-56 -2 -108.5 -2t-102.5 2q-33 2 -58 2 v-123v-35q0 -92 -8 -249q-2 -41 -4 -80q29 3 95 3q33 0 75 -1q143 -2 199 -2l55 -2q31 0 53.5 -22.5t22.5 -54.5t-22.5 -54.5t-55.5 -22.5l-55 2q-55 0 -201 2q-34 1 -61 1q-81 0 -103 -5h-8v-125q0 -178 2 -268l2 -90q2 -33 -20.5 -55.5t-54.5 -23.5h-3q-30 0 -51 21 q-23 23 -25 54l-2 90q-2 92 -2 272z" />
<glyph unicode="g" horiz-adv-x="1159" d="M53 618v36q0 127 25 220q28 107 100 224q76 119 157 181t175 89q59 18 121 18q37 0 74 -6q98 -14 139 -41q39 -25 96 -100q51 -72 84 -137q31 -61 45 -101l14 -34q12 -29 0 -58.5t-40.5 -41t-58.5 0.5t-42 41l-14 35q-14 33 -41 90q-27 53 -70 113q-39 51 -57 63 q-16 10 -80 19q-22 4 -45 4q-41 0 -82 -12q-66 -20 -125 -64.5t-119 -140.5q-61 -96 -83 -181q-20 -72 -20 -175q0 -18 1 -37q4 -123 41 -207q41 -92 90 -160q43 -59 100 -92q59 -33 129 -37q16 -1 31 -1q51 0 98 15q59 23 84 45q29 25 62 76t55 111q25 66 39 121 q6 27 10 47q-25 2 -59 6q-57 4 -119 8q-57 2 -94 2l-41 -2q-31 -2 -54.5 19.5t-24.5 53t20.5 55.5t52.5 26h41q22 1 49 1t59 -1q61 -4 123 -11q63 -4 94 -8q63 -6 94 -49q20 -28 20 -67q0 -14 -3 -29q-4 -29 -21 -90q-16 -61 -41 -133q-29 -78 -71 -144q-43 -68 -88 -106 q-47 -43 -138 -74q-72 -27 -151 -27q-19 0 -39 2q-100 8 -190 56q-88 49 -152 137q-59 82 -104 188q-49 111 -56 264z" />
<glyph unicode="h" horiz-adv-x="1107" d="M53 1300v6q1 28 19 50q20 24 52 27t56.5 -18.5t26.5 -51.5l4 -51q4 -51 18 -283q6 -127 11 -240h15q44 0 151 -8q145 -10 264 -16q86 -4 141 -5q18 0 33 1q41 2 57 4q2 78 2 148q0 105 -4 190q-4 154 -10 215l-6 63q-2 31 18.5 55.5t50.5 27.5h8q26 0 48 -17 q26 -20 28 -51l6 -64q6 -66 12 -224q3 -91 3 -201q0 -80 -2 -171q-4 -213 -8 -330q-4 -115 -5 -190v-94v-19q0 -31 -22.5 -53.5t-53 -22.5t-54 23t-23.5 53v19v92q0 80 4 198q4 78 6 197q-20 0 -47 -2q-17 -1 -38 -1q-62 0 -155 5q-119 8 -264 19q-100 6 -153 6v-11.5v-11.5 q0 -182 -2 -303t-2 -154v-32q0 -31 -22.5 -54.5t-54.5 -23.5t-54.5 23.5t-22.5 54.5v32q0 35 2 156q2 119 2 303q0 180 -12 406q-14 229 -19 278z" />
<glyph unicode="i" horiz-adv-x="266" d="M53 631v229t2 211q1 46 1 84t-1 68l-2 61q0 31 21.5 54.5t53.5 24.5h3q31 -1 53 -21q24 -22 23 -54l2 -61q1 -30 1 -70.5t-1 -89.5q-2 -94 -2 -209v-227q0 -113 2 -221q2 -111 4 -193v-111v-24q0 -33 -22.5 -55.5t-53.5 -22.5t-54.5 22.5t-23.5 55.5v24v109q-2 84 -4 193 t-2 223z" />
<glyph unicode="j" horiz-adv-x="1179" d="M53 236v16q0 31 22.5 54.5t54.5 23.5t54.5 -23.5t22.5 -54.5v-16q0 -10 4 -37q2 -20 16 -54q8 -20 39 -39q37 -23 90 -30q14 -2 28 -2q37 0 74 12q52 16 91 53q43 39 80 105q35 63 45 143q14 88 20 195q4 109 4 268q0 160 -8 274q-4 84 -6 117q-96 6 -113 6h-24 q-31 0 -54.5 22.5t-23.5 54.5t23.5 54.5t54.5 22.5h24q25 0 164 -8q135 -8 195 -11q61 -2 94 -4l31 -2q33 0 54 -24q19 -23 19 -50v-6q-2 -30 -25.5 -51.5t-55.5 -21.5l-31 2q-33 2 -92 4q-33 2 -86 4q2 -33 6 -98q8 -119 8 -284t-6 -278q-4 -113 -19 -211 q-16 -106 -65 -192q-47 -86 -107 -143q-66 -61 -151 -88q-58 -19 -117 -19q-27 0 -53 4q-84 12 -148 51q-70 43 -98 107q-25 53 -31 98q-4 37 -4 56z" />
<glyph unicode="k" horiz-adv-x="1128" d="M53 1317v5q1 28 19 52q20 26 51 27h5q28 -1 50 -19q24 -20 29 -51l2 -33q4 -35 12 -233q8 -174 8 -365q47 41 117 111q100 102 201 197q98 92 178 180q90 96 115 115l18 12q25 18 56.5 13t50 -30.5t12.5 -57.5t-31 -50l-18 -12q-18 -16 -88 -93q-86 -94 -187 -188 q-88 -84 -178 -174q29 -29 107 -100q117 -111 174 -168q59 -57 127 -125q72 -70 108 -109q33 -37 45 -47l15 -14q26 -20 26 -54q1 -32 -21 -54t-54.5 -23.5t-55.5 18.5l-14 14q-16 14 -53 56q-35 37 -103 102q-70 68 -129 127q-55 57 -170 164q-74 70 -112 104 q-41 -39 -72 -63l-53 -43q-4 -4 -9 -6v-228q2 -156 5 -194l2 -43q2 -31 -20.5 -54.5t-53.5 -24.5h-3q-29 0 -51 20q-24 22 -26 53l-2 43q-2 41 -2 198q-2 158 -2 375q-2 217 -10.5 411.5t-10.5 225.5z" />
<glyph unicode="l" horiz-adv-x="800" d="M53 49v182q0 129 6 265q4 131 4 284q0 154 3 287q1 62 1 108.5t-1 77.5l-3 62q0 33 21.5 55.5t53.5 23.5h3q31 0 53 -20q24 -22 23 -55l2 -62q1 -32 1 -80.5t-1 -115.5q-2 -129 -2 -281q0 -158 -6 -291q-4 -131 -4 -258v-118h16q94 2 226.5 3t177.5 1h45q31 0 53.5 -22.5 t22.5 -54.5t-23 -54.5t-53 -22.5h-45h-176q-129 -2 -226 -4l-11 -2t-25.5 -3t-34 -1t-37 5t-31.5 14.5t-23.5 28.5t-9.5 48z" />
<glyph unicode="m" horiz-adv-x="1347" d="M53 59l6 70q3 45 3 160q0 58 -1 133q-2 233 -2 422q-2 190 -4 278q-1 45 -1 74.5t1 44.5q1 45 21 61q12 10 27 11q9 -1 20 -5q27 -10 53.5 -27t44.5 -34l19 -16q41 -72 94 -184q49 -109 108 -232q61 -125 97 -211q35 -84 82 -180q39 -86 65 -154q16 53 39 121 q45 135 88 258t70 207q27 88 63 188q33 92 47 148q14 61 19 78q8 33 44 41q13 3 27 3q21 0 43 -8q34 -14 41 -34q8 -23 27 -160q18 -131 27 -258q8 -123 20 -311t25 -285q12 -96 20 -147l8 -52q2 -8 2 -15q0 -22 -14 -42q-18 -26 -50 -32q-7 -1 -13 -1q-25 1 -45 15 q-26 18 -31 51l-8 51q-8 53 -21 154q-12 100 -27 292q-12 197 -20 312q-2 33 -6 67q-16 -51 -33 -100q-27 -86 -70 -213q-43 -123 -87 -255t-70 -214q-2 -8 -7.5 -21.5t-21.5 -44t-34.5 -48t-48.5 -14.5t-58 38q-16 18 -33 47q-18 29 -47 107q-25 70 -70 165 q-47 100 -84 187q-35 84 -92 205q-49 100 -92 192v-98q0 -190 2 -420q1 -78 1 -138q0 -120 -3 -169l-6 -70q-2 -31 -26.5 -51.5t-56.5 -18t-52 26.5q-19 22 -19 50v5z" />
<glyph unicode="n" horiz-adv-x="1126" d="M54 774v97q0 93 1 169q2 114 6 189l5 90q0 37 23.5 51t53 7t54 -16t26.5 -15q10 -23 51 -101q39 -78 115 -192q78 -119 168 -256q88 -133 182 -262q96 -133 144 -205q16 -27 35 -56q-4 127 -9 310q-5 140 -5 249q0 37 1 70q1 43 1 83q0 79 -3 144q-4 94 -10 150l-10 59 q-4 31 15 57q20 24 50 30l14 2q22 0 42 -16q26 -20 32 -50l8 -62q8 -63 13 -165q3 -67 3 -148q0 -41 -1 -86q-1 -32 -1 -68q0 -107 5 -245q4 -178 8 -316q4 -131 4 -194q-2 -10 -5 -23.5t-15.5 -45.5t-27.5 -49t-42 -17t-57 32q-18 20 -76 115q-53 86 -98 156t-140 196 q-96 133 -186 271q-90 135 -168 256q-29 43 -51 80v-5v-8q-1 -75 -1 -167v-95q1 -149 5 -299q6 -154 8 -285t2 -157l-2 -25q0 -31 -22.5 -53.5t-54 -22.5t-54 23.5t-22.5 54.5l2 25q0 25 -2 153q-2 131 -9 281q-4 153 -5 305z" />
<glyph unicode="o" horiz-adv-x="1185" d="M59 481q-6 52 -6 106q-1 83 13 173q22 148 59 237q39 88 80 144q45 61 123 106q70 37 141 62q76 27 127 30q16 1 29 1q27 0 45 -3l16 -2q21 -2 37 -16h4q115 -23 201 -88q82 -63 128 -139t62 -172q15 -83 15 -172v-11q-2 -100 -43 -235q-39 -135 -80 -205 q-39 -66 -101 -139q-68 -80 -161 -127q-90 -43 -181 -54q-22 -2 -44 -2q-68 0 -130 19q-86 27 -157 96q-68 68 -115 162q-47 96 -62 229zM211 498q12 -106 47 -176q35 -72 86 -121q45 -45 94 -62q36 -10 77 -10q18 0 36 2q63 6 129 39q63 31 113 86q53 63 84 119 q31 53 65 170q35 117 37 194v20q0 69 -12 134q-10 68 -42 119t-91 98q-57 43 -136 57l-90 19q-35 -2 -88 -21q-61 -23 -119 -53q-47 -27 -73 -61q-31 -43 -62 -115q-29 -70 -48 -199q-12 -79 -12 -151q0 -45 5 -88z" />
<glyph unicode="p" horiz-adv-x="1050" d="M53 1243q0 12 2 24.5t6.5 21.5t9.5 16.5t12 12.5t13 10t14.5 8t12.5 4t10 3.5t8 2.5q45 16 138 22q33 2 67 2q58 0 119 -6q102 -10 225 -68q123 -55 203 -143q86 -92 101 -169q4 -25 4 -49q0 -52 -21 -104q-27 -72 -90 -133q-59 -59 -154 -106q-88 -43 -186 -72 q-98 -31 -182 -37q-61 -6 -111 -8q3 -93 3 -175q0 -41 -1 -79q-2 -137 -6 -164l-4 -22q-4 -31 -30 -49q-21 -16 -46 -16q-6 0 -12 1q-31 4 -49.5 31t-14.5 57l4 21q2 23 4 143v66q0 103 -4 221v12q-4 14 -5 24.5t3 22.5q-4 129 -12 256q-8 156 -14 236q-4 78 -11 119 q-4 47 -6 63zM211 1206q2 -6 2 -8q4 -45 10 -127t15 -237q6 -103 10 -205q47 2 104 6q68 6 152 31q84 27 162 63q72 37 114 78q39 39 56 80q8 23 8 46q0 11 -2 23q-6 33 -62 93q-59 66 -155 108q-98 45 -176 53q-54 6 -103 6q-29 0 -57 -2q-47 -2 -78 -8z" />
<glyph unicode="q" horiz-adv-x="1241" d="M53 637v27q0 111 29 219q35 127 125 225q86 96 188 156q102 59 189 82q78 20 122 20h11l33 -2q36 -2 59 -33q18 -4 35 -10q88 -27 170 -90q88 -68 133 -184q43 -111 43 -218q-2 -96 -25 -204q-23 -111 -88 -217q-66 -106 -157 -187q-33 -27 -68 -47q25 -41 49 -82 q63 -104 84 -149q20 -41 27 -56l6 -12q12 -29 1 -59.5t-40 -43.5q-15 -6 -30 -6q-14 0 -29 6q-29 11 -41 38l-9 14q-6 14 -24 53q-16 37 -76 137q-31 49 -59 97q-14 -4 -29 -9q-86 -24 -158 -24q-47 0 -88 10q-109 27 -217 139q-104 109 -133 203q-27 86 -33 207zM207 643 q4 -102 24 -168q18 -59 99 -141q76 -80 141 -94q25 -6 55 -6q43 0 97 12q-39 57 -52 71l-16 21q-18 25 -14 56.5t28.5 51t56.5 15.5t52 -29l16 -22q18 -23 74 -107q27 16 51 35q74 66 127 149q51 84 70 170q20 92 20 174q0 76 -32 160q-29 78 -84 119q-59 45 -119 64 q-63 20 -86 20h-31q-18 0 -35 8q-12 -2 -26 -6q-66 -16 -150 -66q-84 -47 -151 -124q-66 -72 -91 -164q-25 -84 -25 -169q0 -15 1 -30z" />
<glyph unicode="r" horiz-adv-x="952" d="M53 1217v10q-1 27 9 47q12 24 35.5 34.5t42 15.5t42.5 7l23 2q51 10 118.5 10t151.5 -10q174 -20 266 -88q90 -66 127 -127q32 -58 33 -120q0 -13 -2 -25q-6 -70 -68 -158q-51 -78 -133 -131q47 -33 80 -76q37 -53 53 -123q12 -55 21 -110q8 -57 10 -113q2 -53 2 -102 q0 -51 -2 -74l-2 -20q-2 -30 -26 -52q-22 -19 -48 -19h-8q-30 3 -51.5 27.5t-17.5 55.5v20q2 16 2 62q0 45 -2 94t-11 98q-6 49 -18 101q-8 39 -27 65q-20 27 -53 47q-23 12 -49 19q-16 4 -33 6h-14q-10 -2 -19 -6q-102 -39 -204 -66q-35 -10 -58 -12q2 -96 4 -166 q2 -64 2 -112.5t-2 -82.5l-4 -63q-2 -31 -26.5 -51.5t-56 -18.5t-52 25.5t-18.5 56.5l4 62q2 30 2 74t-2 104q-2 100 -6 256v74q-4 207 -5 311q-2 100 -5 164.5t-5 77.5zM211 1178q0 -14 2 -31q2 -68 4 -172q0 -97 2 -287q70 35 150 47q57 8 106 10q33 12 64 27q33 16 61 33 q66 37 105 96q39 55 40 88q1 5 1 11q0 21 -13 42q-18 33 -82 78q-59 45 -194 62q-72 8 -127 8t-94 -8q-14 -2 -25 -4z" />
<glyph unicode="s" horiz-adv-x="991" d="M55 276v15q4 33 30 52t56.5 16t51 -28.5t16.5 -56.5v-4q4 -14 16 -34q18 -37 70 -70q42 -29 137 -29h12q106 2 172 41q66 37 101 92q37 57 43 107q2 15 2 29q0 33 -10 61q-12 35 -45 61q-37 29 -125 54q-100 29 -179 47q-96 23 -190 106q-99 89 -99 239q0 11 1 23 q8 160 104 246q84 78 195 111q62 18 119 17q50 0 96 -13q94 -27 162 -86q70 -61 100 -142q23 -66 35 -106l10 -37q4 -12 4 -24q0 -19 -10 -35q-16 -28 -46 -36.5t-58 6.5t-38 46l-10 37q-10 35 -33 96q-16 45 -55 80q-43 35 -104 53q-24 7 -52 7q-35 0 -75 -11 q-78 -23 -137 -76q-47 -43 -54 -141q0 -7 -1 -13q0 -82 48 -126q66 -57 125 -72q80 -20 183 -49q117 -31 180 -82q68 -53 94 -131q18 -50 18 -105q0 -27 -4 -55q-10 -84 -65 -168q-53 -86 -152 -143q-100 -57 -248 -61h-11q-144 0 -226 53q-82 55 -119 125q-4 6 -12 21.5 t-10 20.5l-10 20q-6 12 -5 20z" />
<glyph unicode="t" horiz-adv-x="1193" d="M53 1239v5q1 28 21 50q22 24 53 25l37 2q37 0 207 4t321 10q122 6 202 6h37q87 -2 116 -4l26 -2q31 -5 51 -29q18 -21 18 -47v-7q-3 -30 -27.5 -51t-55.5 -19l-27 2q-22 2 -104 3h-25q-78 0 -205 -5v-17q-2 -33 -4 -141q-2 -111 -4 -259.5t-4 -310t-6 -261.5 q-2 -100 -4 -127l-2 -25q0 -33 -24 -55q-22 -20 -51 -19h-5q-31 2 -52.5 25.5t-21.5 54.5l2 27q2 25 4 125q4 96 6 258q2 168 5 311q2 150 4 258q2 113 4 148v2q-82 -2 -170 -5q-170 -2 -205 -4l-37 -2q-31 -2 -54.5 20.5t-25.5 53.5z" />
<glyph unicode="u" horiz-adv-x="1081" d="M53 899q0 96 2 236q2 137 2 155v21q0 31 23.5 53t54.5 22t53.5 -22t22.5 -53v-21q0 -20 -2 -157t-2 -232q0 -94 14 -285q10 -180 68 -303q53 -117 96 -145q36 -24 77 -24q6 0 13 1q57 4 98 27q41 25 101 127q68 113 94.5 180.5t57 211t36.5 255.5q8 117 10 199l2 84 q0 31 24 53.5t55.5 21.5t53 -25t21.5 -54l-2 -84q-2 -84 -10 -205q-8 -125 -41 -278.5t-63.5 -233.5t-104.5 -203q-82 -137 -156 -180t-166 -49q-13 -1 -26 -1q-87 0 -158 48q-80 53 -151 211q-68 147 -82 356q-14 195 -15 293z" />
<glyph unicode="v" horiz-adv-x="1234" d="M56 1276q6 30 32 48q19 12 41 12q9 0 18 -2q32 -7 48 -34l45 -71q49 -76 139 -293q88 -217 137 -406q41 -158 78 -268q6 18 10 27q41 115 129 323q88 211 170 375q80 160 105 227l26 72q10 29 40 42q16 7 32 7q14 0 28 -5q30 -12 42 -40q7 -15 8 -30q0 -14 -6 -27 l-27 -72q-27 -76 -111 -241q-78 -162 -166 -367q-86 -207 -126 -317q-41 -111 -64 -170v-8.5t-4 -16.5t-9 -23.5t-15.5 -22.5t-22.5 -17.5t-31.5 -6.5t-42.5 11q-37 14 -49 57q-8 27 -51 143q-43 123 -92 310q-47 178 -131 385q-84 205 -125 270l-45 72q-12 20 -12 42 q1 7 2 15z" />
<glyph unicode="w" horiz-adv-x="1597" d="M59 1249q-6 15 -6 30q1 15 7 31q12 30 40 40q14 6 29 6t30 -6q30 -12 42 -41l37 -86q37 -92 96 -334q59 -240 121 -508q10 -53 22 -100q41 197 78 362q41 182 74 297l4 12q4 13 5 18t7 17t13.5 19.5t18.5 15.5t25 12q25 10 44.5 6t33 -9t25.5 -20.5t19 -27.5t13.5 -31.5 t9.5 -31t6 -26.5t5 -17q47 -172 117 -371q49 -135 80 -211q37 121 82 297q55 229 120 391q63 156 103 240l39 80q12 29 43 40t60 -3q28 -14 38 -44q5 -14 5 -27q0 -16 -7 -32l-39 -80q-37 -80 -100 -233q-59 -150 -115 -369q-55 -227 -100 -367q-2 -2 -5 -22.5t-8.5 -38.5 t-15.5 -44t-25.5 -39t-40 -22.5t-55.5 5.5q-39 12 -51 51q-8 25 -43 96q-37 78 -109 281q-53 150 -94 286q-16 -61 -30 -133q-41 -178 -89 -395q-6 -35 -17 -92.5t-16 -80t-17.5 -50t-28.5 -45.5q-23 -23 -62 -23t-61.5 23.5t-36.5 74.5q-14 55 -76 326q-59 268 -117 506 q-57 231 -92 311z" />
<glyph unicode="x" horiz-adv-x="1087" d="M54 108q-1 6 0 12q0 24 14 44l28 39q27 37 101 145q74 111 190 279q23 35 47 69q-49 82 -104 170q-158 256 -197 305l-43 54q-18 25 -15 57q3 30 27 50q21 17 48 17h8q32 -3 53 -28l43 -53q45 -57 207 -320q37 -61 71 -119q55 76 117 154q145 186 199 248l53 61 q20 23 53 25t56.5 -18.5t25.5 -52.5v-6q0 -28 -18 -50l-53 -60q-51 -59 -195 -243q-80 -102 -152 -199q63 -104 119 -194q119 -197 166 -279l47 -82q16 -27 8 -57t-36 -46q-18 -10 -36 -11q-10 -1 -22 3q-30 8 -47 35l-47 82q-47 80 -164 275q-39 66 -84 139q-6 -8 -10 -14 q-115 -166 -188 -277q-74 -111 -105 -149l-26 -39q-18 -25 -50 -30t-58.5 13.5t-30.5 50.5z" />
<glyph unicode="y" horiz-adv-x="1191" d="M54 1306q3 31 28 50q21 17 48 17h8q32 -3 52 -27l35 -46q41 -49 125 -184q84 -131 176 -293q45 -76 72 -129q84 113 182 244q100 137 164 211l62 70q20 25 52 26.5t55.5 -19t25.5 -52.5v-5q0 -28 -19 -51l-59 -69q-59 -70 -158 -201q-100 -135 -178 -242 q-2 -2 -13.5 -18.5t-20.5 -27.5t-24.5 -26.5t-29.5 -25.5q0 -45 2 -117q2 -90 6 -162q2 -76 2 -110v-35q0 -31 -22.5 -53.5t-54 -22.5t-54 22.5t-22.5 53.5v35q0 33 -2 104q-4 74 -7 164q-2 90 -4 137l-2 47q0 8 2 17q-31 59 -88 160q-90 158 -172 286q-80 127 -115 168 l-36 47q-16 22 -16 49v8z" />
<glyph unicode="z" horiz-adv-x="1132" d="M54 1241q4 31 30 49q21 15 46 16q5 0 11 -1l29 -5q27 -4 205 -6q74 -2 142 -2q102 0 190 4q150 4 215 7h7q42 0 70 -23q12 -10 21.5 -21.5t13.5 -22.5t4 -23.5t-1 -22.5t-7 -22.5t-10 -20.5t-11.5 -19.5t-11.5 -15.5t-11 -12l-7 -8q-72 -88 -170 -228 q-100 -139 -164 -237q-66 -98 -153 -228q-90 -131 -154 -211q-2 -2 -7 -8t-5 -8q10 -2 18 -2q111 -8 338 -23q231 -14 281 -18l47 -6q33 -3 53 -27q17 -20 17 -46q0 -5 -1 -10q-5 -32 -29 -52q-20 -17 -45 -18q-5 0 -10 1l-47 4q-47 4 -274 19q-231 14 -342 22 q-123 10 -156 25q-43 17 -51 69q-2 13 -2 24q0 34 18 54q16 20 78 97q59 74 146 200q86 127 151 228q68 100 168 241q80 111 143 193q-51 -2 -114 -4q-90 -4 -195 -4q-70 0 -147 2q-195 2 -226 8l-28 4q-31 5 -49 31q-15 21 -15 44q0 6 1 13z" />
<glyph unicode="&#xad;" d="M53 572.5q0 31.5 22.5 54t55.5 22.5h23q23 0 133 8q117 6 184 9q66 2 84 2q29 0 55 -11l17 -4q29 -10 44 -38.5t5 -58.5t-39 -44t-57 -4l-17 4q-4 2 -8 2q-14 0 -82 -2q-63 -2 -176 -8q-117 -8 -143 -8h-23q-33 0 -55.5 22.5t-22.5 54z" />
<glyph unicode="&#x2000;" horiz-adv-x="743" />
<glyph unicode="&#x2001;" horiz-adv-x="1486" />
<glyph unicode="&#x2002;" horiz-adv-x="743" />
<glyph unicode="&#x2003;" horiz-adv-x="1486" />
<glyph unicode="&#x2004;" horiz-adv-x="495" />
<glyph unicode="&#x2005;" horiz-adv-x="371" />
<glyph unicode="&#x2006;" horiz-adv-x="247" />
<glyph unicode="&#x2007;" horiz-adv-x="247" />
<glyph unicode="&#x2008;" horiz-adv-x="185" />
<glyph unicode="&#x2009;" horiz-adv-x="297" />
<glyph unicode="&#x200a;" horiz-adv-x="82" />
<glyph unicode="&#x2010;" d="M53 572.5q0 31.5 22.5 54t55.5 22.5h23q23 0 133 8q117 6 184 9q66 2 84 2q29 0 55 -11l17 -4q29 -10 44 -38.5t5 -58.5t-39 -44t-57 -4l-17 4q-4 2 -8 2q-14 0 -82 -2q-63 -2 -176 -8q-117 -8 -143 -8h-23q-33 0 -55.5 22.5t-22.5 54z" />
<glyph unicode="&#x2011;" d="M53 572.5q0 31.5 22.5 54t55.5 22.5h23q23 0 133 8q117 6 184 9q66 2 84 2q29 0 55 -11l17 -4q29 -10 44 -38.5t5 -58.5t-39 -44t-57 -4l-17 4q-4 2 -8 2q-14 0 -82 -2q-63 -2 -176 -8q-117 -8 -143 -8h-23q-33 0 -55.5 22.5t-22.5 54z" />
<glyph unicode="&#x2012;" d="M53 572.5q0 31.5 22.5 54t55.5 22.5h23q23 0 133 8q117 6 184 9q66 2 84 2q29 0 55 -11l17 -4q29 -10 44 -38.5t5 -58.5t-39 -44t-57 -4l-17 4q-4 2 -8 2q-14 0 -82 -2q-63 -2 -176 -8q-117 -8 -143 -8h-23q-33 0 -55.5 22.5t-22.5 54z" />
<glyph unicode="&#x2013;" horiz-adv-x="1128" d="M53 572.5q0 31.5 36.5 54t90.5 22.5h38q38 0 217 8q191 6 301 9q107 2 137 2q47 0 90 -11l27 -4q48 -10 72.5 -38.5t8 -58.5t-64 -44t-92.5 -4l-28 4q-7 2 -13 2q-23 0 -134 -2q-103 -2 -288 -8q-191 -8 -233 -8h-38q-54 0 -90.5 22.5t-36.5 54z" />
<glyph unicode="&#x2014;" horiz-adv-x="2151" d="M53 572.5q0 31.5 73.5 54t181.5 22.5h75q75 0 434 8q382 6 601 9q216 2 275 2q94 0 179 -11l56 -4q95 -10 144 -38.5t16 -58.5t-127.5 -44t-186.5 -4l-55 4q-13 2 -26 2q-46 0 -268 -2q-206 -2 -575 -8q-382 -8 -467 -8h-75q-108 0 -181.5 22.5t-73.5 54z" />
<glyph unicode="&#x2018;" horiz-adv-x="276" d="M53 926v92q0 98 10 158l11 49q4 31 30.5 49t57.5 13t49 -31.5t12 -57.5l-8 -51q-8 -45 -8 -129v-90q0 -31 -22.5 -54.5t-53.5 -23.5t-54.5 22.5t-23.5 53.5z" />
<glyph unicode="&#x2019;" horiz-adv-x="311" d="M56.5 885.5q-9.5 31.5 4.5 58.5l21 35q12 23 18 90q2 23 3 44.5t1 31.5v12l-2 23q-6 31 13.5 56.5t51.5 30.5t57.5 -14.5t29.5 -50.5l4 -24q4 -33 -6 -125q-8 -96 -35 -146l-20 -37q-14 -27 -45 -36t-58.5 5.5t-37 46z" />
<glyph unicode="&#x201c;" horiz-adv-x="634" d="M53 932v84q2 104 41 176l31 57q16 27 47 36t58.5 -6t36.5 -45.5t-7 -57.5l-31 -58q-20 -39 -22 -104v-84q0 -31 -23.5 -53.5t-54.5 -22.5t-53.5 23.5t-22.5 54.5zM367 1100q14 76 55 123l29 30q20 23 52 25t55.5 -19.5t25 -53t-18.5 -54.5l-28 -31q-12 -14 -19 -49 q-8 -39 4 -88l15 -63q6 -31 -11.5 -58.5t-48.5 -34t-57.5 11t-34.5 48.5l-12 63q-18 80 -6 150z" />
<glyph unicode="&#x201d;" horiz-adv-x="610" d="M54.5 891.5q-2.5 31.5 15.5 56.5l36 47q27 33 37 78q8 37 -4 62l-24 51q-14 27 -4 57.5t37.5 45t58.5 4t45 -39.5l24 -49q37 -74 17 -164q-16 -80 -66 -141l-37 -47q-20 -25 -52 -28t-56.5 16.5t-27 51zM351 1229q-1 33 19.5 55.5t53.5 24.5t55 -19l19 -16 q16 -16 28.5 -39t15.5 -36t9 -44q16 -78 -6 -182q-18 -84 -25 -113l-4 -29q-4 -31 -30.5 -50t-57.5 -14t-49 30.5t-14 56.5l4 31q6 33 24 121q16 72 6 118q-4 27 -10 39l-12 13q-25 20 -26 53z" />
<glyph unicode="&#x202f;" horiz-adv-x="297" />
<glyph unicode="&#x205f;" horiz-adv-x="371" />
<glyph unicode="&#x25fc;" horiz-adv-x="1351" d="M0 0v1352h1352v-1352h-1352z" />
</font>
</defs>
</svg>
